<?xml version="1.0" encoding="UTF-8" standalone="no"?>
<!-- Generator: Adobe Illustrator 15.0.0, SVG Export Plug-In . SVG Version: 6.00 Build 0)  -->

<svg
   xmlns:dc="http://purl.org/dc/elements/1.1/"
   xmlns:cc="http://creativecommons.org/ns#"
   xmlns:rdf="http://www.w3.org/1999/02/22-rdf-syntax-ns#"
   xmlns:svg="http://www.w3.org/2000/svg"
   xmlns="http://www.w3.org/2000/svg"
   xmlns:sodipodi="http://sodipodi.sourceforge.net/DTD/sodipodi-0.dtd"
   xmlns:inkscape="http://www.inkscape.org/namespaces/inkscape"
   version="1.1"
   id="Layer_1"
   x="0px"
   y="0px"
   width="11px"
   height="10px"
   viewBox="0 0 11 10"
   enable-background="new 0 0 11 10"
   xml:space="preserve"
   sodipodi:docname="icon-down-dir-white.svg"
   inkscape:version="0.92.2 (5c3e80d, 2017-08-06)"><metadata
     id="metadata9"><rdf:RDF><cc:Work
         rdf:about=""><dc:format>image/svg+xml</dc:format><dc:type
           rdf:resource="http://purl.org/dc/dcmitype/StillImage" /></cc:Work></rdf:RDF></metadata><defs
     id="defs7" /><sodipodi:namedview
     pagecolor="#ffffff"
     bordercolor="#666666"
     borderopacity="1"
     objecttolerance="10"
     gridtolerance="10"
     guidetolerance="10"
     inkscape:pageopacity="0"
     inkscape:pageshadow="2"
     inkscape:window-width="1366"
     inkscape:window-height="706"
     id="namedview5"
     showgrid="false"
     inkscape:zoom="23.6"
     inkscape:cx="0.22457627"
     inkscape:cy="5"
     inkscape:window-x="-8"
     inkscape:window-y="-8"
     inkscape:window-maximized="1"
     inkscape:current-layer="Layer_1" /><polyline
     fill="#231F20"
     points="5.5,10 0,0 11,0 "
     id="polyline2" /><path
     style="fill:#ffffff;fill-opacity:0.95169079;stroke-width:0.04237288"
     d="M 2.7726958,4.9966449 C 1.2780097,2.2790868 0.05508475,0.04692706 0.05508475,0.03628973 0.05508475,0.02565242 2.5052966,0.01694915 5.5,0.01694915 c 2.9947034,0 5.444915,0.0096724 5.444915,0.02149426 0,0.0290103 -5.3830599,9.82096039 -5.4230582,9.86470829 -0.017353,0.018979 -1.254475,-2.1889492 -2.749161,-4.9065068 z"
     id="path819"
     inkscape:connector-curvature="0" /><path
     style="fill:#ffffff;fill-opacity:0.95169079;stroke-width:0.04237288;stroke:none"
     d="M 5.3421631,9.6703322 C 3.1909083,5.769461 0.05508475,0.05776185 0.05508475,0.04026195 c 0,-0.01282204 2.45021185,-0.0233128 5.44491525,-0.0233128 2.9947034,0 5.444915,0.01049562 5.444915,0.0233236 0,0.0310509 -5.3810773,9.81849165 -5.4226803,9.86311035 -0.017815,0.019106 -0.098847,-0.085767 -0.1800716,-0.2330509 z"
     id="path821"
     inkscape:connector-curvature="0" /></svg>